PathFileType	4	(X/Y/Z)	s06c0102.trc
DataRate	CameraRate	NumFrames	NumMarkers	Units	OrigDataRate	OrigDataStartFrame	OrigNumFrames
200	200	6	48	mm	200	1750	2000
Frame#	Time	racr			lacr			c7			jug			rlel			rdr			llel			ldr			s2			lic			ric			lasi			rasi			rpsi			lpsi			rgt			lgt			rth1			rth2			rth3			rth4			rlfc			rmfc			rsh1			rsh2			rsh3			rsh4			rlmal			rcal			rtoe			rmt5			lth1			lth2			lth4			lth3			llfc			lmfc			llmal			lcal			lmt5			lsh1			lsh2			lsh3			lsh4			ltoe			SBIKE			LBIKE			RBIKE			
		X1	Y1	Z1	X2	Y2	Z2	X3	Y3	Z3	X4	Y4	Z4	X5	Y5	Z5	X6	Y6	Z6	X7	Y7	Z7	X8	Y8	Z8	X9	Y9	Z9	X10	Y10	Z10	X11	Y11	Z11	X12	Y12	Z12	X13	Y13	Z13	X14	Y14	Z14	X15	Y15	Z15	X16	Y16	Z16	X17	Y17	Z17	X18	Y18	Z18	X19	Y19	Z19	X20	Y20	Z20	X21	Y21	Z21	X22	Y22	Z22	X23	Y23	Z23	X24	Y24	Z24	X25	Y25	Z25	X26	Y26	Z26	X27	Y27	Z27	X28	Y28	Z28	X29	Y29	Z29	X30	Y30	Z30	X31	Y31	Z31	X32	Y32	Z32	X33	Y33	Z33	X34	Y34	Z34	X35	Y35	Z35	X36	Y36	Z36	X37	Y37	Z37	X38	Y38	Z38	X39	Y39	Z39	X40	Y40	Z40	X41	Y41	Z41	X42	Y42	Z42	X43	Y43	Z43	X44	Y44	Z44	X45	Y45	Z45	X46	Y46	Z46	X47	Y47	Z47	X48	Y48	Z48	
1750	8.7500	461.613967	1320.500316	-73.231447	491.950235	1309.211036	-372.327848	463.554215	1389.013839	-224.138430	459.742207	1228.422864	-215.505320	534.013035	1084.434431	19.955126	719.724559	924.029977	-52.276282	514.449623	1056.388654	-465.688461	710.974235	922.487335	-399.599212	-51.759025	1116.103624	-228.825348	123.252530	1099.350597	-396.300530	94.032381	1107.496888	-68.081094	145.425198	1044.296980	-360.256359	134.721178	1072.417216	-102.953826	-24.834325	1161.417796	-204.916528	-24.320298	1152.218945	-268.781015	76.224488	1030.643515	-33.151181	98.795011	1023.164027	-425.954544	185.469716	958.916301	-23.965572	271.440457	927.904493	-25.405837	326.661426	861.436018	-23.959017	288.475639	955.427683	-45.197810	372.172056	768.297132	-47.098964	361.745994	745.100758	-159.618203	280.706324	686.391779	-23.754257	227.673038	621.170798	-43.453960	146.344857	585.635190	-48.474374	242.182974	606.639831	-79.605047	75.789280	546.385575	-55.862374	15.521448	571.067525	-104.348732	173.301784	344.338403	-96.112410	95.674501	409.003296	-30.300987	162.741151	912.473587	-441.956763	239.040094	870.883364	-432.876328	263.422455	897.149318	-421.032053	284.567320	794.852616	-422.419536	342.271966	697.344262	-391.656581	345.698190	682.665821	-276.930258	275.415159	336.056889	-379.056683	202.568931	321.588108	-331.301385	380.893362	239.466586	-404.848862	329.973982	591.356670	-413.621295	334.997758	507.326811	-391.153647	299.181140	425.899576	-388.812056	358.649701	508.185192	-359.919449	467.210010	226.619057	-347.767981	-203.284855	866.547746	-215.186875	-48.838173	79.992494	-414.682037	-48.878881	79.913661	-17.167816	
1751	8.7550	461.656204	1321.188516	-72.954977	492.317705	1310.230253	-371.788161	463.673189	1389.891206	-223.777294	460.030468	1229.305000	-215.206869	534.301782	1085.017921	20.310608	719.852760	924.142620	-52.253751	515.362526	1057.543524	-465.526924	711.225993	922.428827	-399.494864	-51.385485	1116.337696	-229.251171	123.711220	1099.469803	-396.141031	94.135023	1107.815635	-68.091532	145.765149	1044.074551	-360.423449	135.101757	1073.047736	-103.319882	-24.323310	1161.851222	-205.544490	-23.809747	1152.393541	-269.031705	76.710690	1032.817102	-32.934571	98.648330	1022.295006	-425.929377	186.164280	962.428837	-24.427428	272.590112	932.853403	-25.832307	328.922022	867.279909	-23.899731	289.155607	960.337858	-45.717273	375.802157	774.349318	-47.041640	365.717604	750.775118	-159.403863	284.434118	692.457007	-23.342872	230.923224	627.911271	-43.219188	149.646055	592.019193	-48.394804	245.561101	612.853332	-79.573286	79.001580	552.599756	-55.842477	17.989521	576.543446	-104.867156	177.462368	351.258147	-96.223216	99.528323	415.583948	-30.409722	161.477407	910.496375	-441.776394	236.969727	867.514541	-432.601546	261.792951	893.270463	-420.683251	281.094448	790.547505	-422.164672	337.524936	691.817702	-391.403213	341.665811	677.899721	-276.496419	271.756377	330.255197	-378.964044	199.190182	316.102308	-331.252771	377.064954	233.074608	-404.762446	325.214395	585.850802	-413.355079	330.603982	501.664746	-391.104444	295.115121	420.249860	-388.748120	354.445282	502.529763	-359.951603	463.384994	219.737437	-347.732772	-203.296469	866.543368	-215.197910	-48.865620	79.962922	-414.664573	-48.902386	79.920207	-17.158367	
1752	8.7600	461.655231	1321.813485	-72.627450	492.659480	1311.319789	-371.222475	463.769595	1390.688535	-223.348396	460.324864	1230.172486	-214.857791	534.611364	1085.533099	20.594766	720.062961	924.007991	-51.997824	516.216425	1058.608789	-465.429570	711.487467	922.324276	-399.399219	-51.067055	1116.468333	-229.528766	124.214957	1099.502132	-395.964990	95.162856	1108.125289	-68.082861	146.279355	1043.923462	-360.623460	135.742709	1073.395399	-104.209507	-23.940121	1162.065788	-205.815108	-23.293322	1152.434662	-269.275156	77.384027	1034.342036	-33.478301	98.521127	1021.255158	-425.922140	186.827950	965.949111	-24.814315	273.728014	937.734644	-26.097873	331.058074	873.228110	-23.732296	289.790756	965.491358	-46.194624	379.208536	780.990622	-46.646583	369.594391	756.769470	-159.210026	287.645230	698.437199	-23.231784	234.436113	633.950084	-43.175257	153.026064	598.212012	-48.432059	248.825249	618.342723	-79.871074	82.652063	558.376630	-56.285696	21.182817	582.374539	-104.939430	181.898841	357.935659	-96.389412	103.931066	421.991441	-30.118106	160.241458	908.532456	-441.590931	234.940005	864.109379	-432.284741	260.282632	889.528941	-420.378628	277.501686	786.513020	-421.764012	332.785204	686.399868	-391.128388	336.267159	671.341530	-275.602296	267.909834	324.636271	-378.852597	195.590308	310.879719	-331.163026	373.108331	226.901743	-404.716188	320.383987	580.428915	-413.070159	326.103084	496.193449	-391.023231	290.805920	414.526557	-388.166833	350.156297	497.036937	-359.929141	459.266815	213.091686	-347.627720	-203.278422	866.545603	-215.168474	-48.841589	79.983255	-414.677222	-48.881544	79.918256	-17.166856	
1753	8.7650	461.647744	1322.400488	-72.312998	493.057138	1312.243369	-370.714032	463.864913	1391.518857	-222.928712	460.723169	1230.929996	-214.482281	534.871794	1086.042216	20.845165	719.959959	924.000690	-51.963610	517.108072	1059.671761	-465.253229	711.696279	922.249623	-399.260097	-50.704614	1116.525291	-229.775525	124.845916	1099.451953	-395.775036	95.306811	1108.484784	-68.133923	146.804343	1043.763026	-360.779787	135.980329	1073.964692	-105.269710	-23.296419	1162.445152	-206.861360	-22.305772	1152.187671	-269.521268	77.776543	1036.296414	-32.571854	98.404591	1020.239173	-425.819687	187.429406	969.426601	-25.181924	274.772027	942.662482	-26.398619	332.952964	879.072048	-23.413828	290.394998	970.337753	-46.777605	382.653992	787.424876	-46.444230	373.738765	763.109646	-159.270807	291.304771	704.406779	-23.062565	238.132523	639.864129	-43.088070	156.722178	604.134577	-48.366474	252.446651	625.096783	-79.053734	85.791801	564.906551	-55.877180	24.593373	587.950333	-105.036038	186.577323	364.555970	-96.464613	108.291617	427.959616	-30.273406	159.036922	906.566178	-441.416029	232.870264	860.848885	-431.998119	258.622918	885.752376	-419.953996	274.073420	782.333373	-421.632651	328.001175	681.130713	-390.892032	330.411366	666.063645	-275.957538	263.982968	319.192917	-378.712197	191.837416	305.902374	-331.015663	368.878803	220.942822	-404.595123	315.500983	575.183667	-412.772164	321.537184	490.955788	-390.993594	286.399692	409.230074	-388.094205	345.742207	491.801073	-360.074675	455.059627	206.629860	-347.632880	-203.268407	866.554098	-215.161036	-48.841756	80.014687	-414.671786	-48.894718	79.922696	-17.152591	
1754	8.7700	461.628927	1322.966197	-71.991339	493.416214	1313.271016	-370.250001	463.958074	1392.255207	-222.621156	461.053900	1231.727728	-214.227650	535.048255	1086.545492	21.033913	719.620156	923.887537	-51.880275	517.932716	1060.645646	-465.188848	711.874628	922.163915	-399.166164	-50.440845	1116.660026	-229.931315	125.371653	1099.300461	-395.660836	95.381077	1108.933070	-68.129364	147.369657	1043.367400	-360.919282	137.289488	1073.548533	-107.688666	-22.973787	1162.648766	-207.115662	-21.949582	1152.286199	-269.786547	78.181404	1037.742288	-32.360629	98.340704	1018.996809	-425.780890	188.077741	972.815002	-25.502627	275.853326	947.458674	-26.616060	335.040541	884.864356	-23.361871	290.984245	975.235276	-47.273531	386.064777	793.937956	-46.238761	377.237973	768.813316	-158.787944	295.045370	710.350356	-22.900041	241.898485	645.773602	-43.057474	160.559493	609.768565	-48.377582	256.133784	630.950434	-79.160374	89.640617	570.595370	-55.898822	28.157731	593.316396	-105.134136	191.454553	370.819342	-96.584985	112.819562	433.858834	-30.379682	157.814286	904.586064	-441.340935	230.788789	857.496924	-431.645323	257.017798	882.041529	-419.556665	270.624001	778.313892	-421.264865	323.217252	676.060349	-390.617603	325.119105	660.874085	-275.968679	259.824105	314.265899	-378.618439	187.997979	301.162290	-330.869611	364.456720	215.078571	-404.529211	310.558718	570.249277	-412.505300	316.822265	485.926684	-390.881323	281.853716	404.268890	-388.428300	341.286020	486.749076	-360.182348	450.531298	200.265572	-347.545356	-203.253216	866.553541	-215.155443	-48.849778	79.975944	-414.680579	-48.886180	79.929646	-17.153437	
1755	8.7750	461.545258	1323.522673	-71.690494	493.593417	1313.977722	-369.838770	463.993326	1393.022989	-222.218293	461.332185	1232.489497	-213.878996	535.160725	1086.948158	21.092905	719.608412	923.949930	-51.910510	518.720300	1061.584870	-465.009122	712.077353	922.061658	-399.092309	-50.145676	1116.777994	-230.257051	126.019218	1099.085956	-395.447495	95.397346	1109.432578	-68.078835	147.918190	1042.893893	-360.918884	137.299388	1073.770887	-107.325819	-22.702339	1162.773598	-207.374808	-21.610255	1152.300737	-270.039747	78.513870	1039.087980	-32.107488	98.291489	1017.798325	-425.672517	188.785012	976.214946	-25.740030	276.841462	952.261737	-26.810848	336.992646	890.688738	-23.325741	291.537739	980.179833	-47.676609	389.484032	800.389730	-46.099744	381.102773	774.983964	-158.756801	298.845486	716.234838	-22.770547	246.070104	651.030912	-43.128956	164.591449	615.365322	-48.344033	260.167384	636.865364	-79.139930	93.651560	576.029674	-55.939255	32.278182	598.611193	-105.274317	196.509276	376.961006	-96.804166	117.619704	439.541636	-30.478080	156.696518	902.512769	-441.200184	228.780969	854.198500	-431.348774	255.365649	878.233559	-419.141856	267.193485	774.344828	-420.935079	318.442740	671.253118	-390.303816	319.806876	655.774608	-275.814960	255.503583	309.376142	-378.368973	184.006748	296.800739	-330.721144	359.808521	209.451311	-404.472188	305.640585	565.236868	-412.360956	312.154540	481.062172	-390.914106	277.277540	399.409110	-388.279677	336.776718	481.847203	-360.200059	445.801706	193.991418	-347.451518	-203.231857	866.568209	-215.115198	-48.856065	79.974766	-414.683261	-48.870772	79.935868	-17.154534	
